<svg xmlns="http://www.w3.org/2000/svg" xmlns:xlink="http://www.w3.org/1999/xlink" width="500" zoomAndPan="magnify" viewBox="0 0 375 374.999991" height="500" preserveAspectRatio="xMidYMid meet" version="1.0"><defs><clipPath id="6bb5d5d881"><path d="M 23.367188 23.367188 L 351.867188 23.367188 L 351.867188 351.867188 L 23.367188 351.867188 Z M 23.367188 23.367188 " clip-rule="nonzero"/></clipPath><clipPath id="4fd047934a"><path d="M 59.566406 76 L 300.820312 76 L 300.820312 326.738281 L 59.566406 326.738281 Z M 59.566406 76 " clip-rule="nonzero"/></clipPath><clipPath id="324750ec90"><path d="M 66.039062 65 L 307.296875 65 L 307.296875 316.21875 L 66.039062 316.21875 Z M 66.039062 65 " clip-rule="nonzero"/></clipPath><clipPath id="ecda31f61f"><path d="M 73.617188 54 L 314.871094 54 L 314.871094 304.8125 L 73.617188 304.8125 Z M 73.617188 54 " clip-rule="nonzero"/></clipPath></defs><g clip-path="url(#6bb5d5d881)"><path fill="#e1d2ff" d="M 105.472656 23.324219 C 60.152344 23.324219 23.40625 60.070312 23.40625 105.390625 L 23.40625 269.523438 C 23.40625 314.847656 60.152344 351.589844 105.472656 351.589844 L 269.605469 351.589844 C 314.925781 351.589844 351.671875 314.847656 351.671875 269.523438 L 351.671875 105.390625 C 351.671875 60.070312 314.925781 23.324219 269.605469 23.324219 Z M 105.472656 23.324219 " fill-opacity="1" fill-rule="nonzero"/></g><g clip-path="url(#4fd047934a)"><path fill="#cbb2fd" d="M 125.980469 79.464844 C 85.808594 89.820312 59.9375 124.191406 59.914062 165.679688 C 59.878906 213.703125 59.898438 261.734375 59.898438 309.757812 L 93.054688 290.9375 C 92.972656 249.160156 92.996094 207.40625 93.03125 165.625 C 93.03125 151.847656 97.078125 139.429688 106.257812 128.96875 C 120.535156 112.667969 139.054688 107.71875 159.851562 109.882812 C 183.929688 112.359375 204.148438 128.160156 209.320312 149.71875 C 211.527344 158.863281 210.660156 168.703125 211.609375 178.167969 C 212.164062 183.535156 209.933594 186.261719 205.460938 188.792969 C 174.742188 206.25 144.167969 223.96875 113.570312 241.609375 C 107.976562 244.824219 107.917969 248.335938 113.40625 251.515625 C 121.511719 256.199219 129.625 260.878906 137.730469 265.5625 C 172.015625 285.34375 206.28125 305.132812 240.589844 324.890625 C 241.644531 325.492188 242.800781 325.898438 244.660156 326.730469 L 244.660156 321.367188 C 244.660156 284.234375 244.742188 247.09375 244.53125 209.960938 C 244.511719 207.257812 245.089844 205.382812 246.40625 203.855469 C 247.214844 202.886719 248.304688 202.085938 249.726562 201.277344 C 266.871094 191.578125 283.886719 181.660156 301.007812 171.902344 L 301.007812 133.488281 C 293.046875 138.066406 285.472656 142.460938 277.902344 146.816406 C 267.152344 153.023438 256.386719 159.195312 245.695312 165.324219 C 245.117188 164.582031 244.785156 164.351562 244.769531 164.085938 C 244.667969 162.972656 244.628906 161.832031 244.585938 160.699219 C 243.882812 143.71875 238.5625 128.332031 228.945312 114.367188 C 205.28125 79.878906 162.035156 70.179688 125.980469 79.464844 Z M 211.140625 269.570312 C 197.8125 261.894531 184.960938 254.488281 171.351562 246.648438 C 179.023438 242.234375 186.449219 237.964844 193.917969 233.667969 C 199.589844 230.386719 205.304688 227.113281 211.140625 223.75 Z M 211.140625 269.570312 " fill-opacity="1" fill-rule="nonzero"/></g><g clip-path="url(#324750ec90)"><path fill="#8c52ff" d="M 132.453125 68.945312 C 92.28125 79.300781 66.410156 113.671875 66.386719 155.160156 C 66.351562 203.183594 66.375 251.214844 66.375 299.238281 L 99.527344 280.417969 C 99.445312 238.640625 99.46875 196.886719 99.503906 155.109375 C 99.503906 141.328125 103.550781 128.910156 112.730469 118.449219 C 127.007812 102.148438 145.527344 97.203125 166.324219 99.363281 C 190.402344 101.839844 210.621094 117.640625 215.792969 139.203125 C 218 148.34375 217.132812 158.183594 218.082031 167.652344 C 218.636719 173.015625 216.40625 175.742188 211.933594 178.273438 C 181.214844 195.730469 150.640625 213.453125 120.042969 231.089844 C 114.449219 234.308594 114.390625 237.820312 119.878906 240.996094 C 127.984375 245.679688 136.097656 250.363281 144.203125 255.042969 C 178.488281 274.824219 212.753906 294.613281 247.066406 314.371094 C 248.117188 314.972656 249.273438 315.378906 251.132812 316.210938 L 251.132812 310.847656 C 251.132812 273.714844 251.214844 236.574219 251.007812 199.441406 C 250.984375 196.738281 251.5625 194.863281 252.878906 193.335938 C 253.6875 192.367188 254.777344 191.566406 256.199219 190.757812 C 273.34375 181.058594 290.363281 171.140625 307.484375 161.382812 L 307.484375 122.96875 C 299.519531 127.546875 291.945312 131.941406 284.375 136.296875 C 273.625 142.503906 262.859375 148.675781 252.167969 154.804688 C 251.589844 154.0625 251.257812 153.832031 251.242188 153.566406 C 251.140625 152.457031 251.101562 151.316406 251.058594 150.179688 C 250.355469 133.199219 245.035156 117.8125 235.417969 103.847656 C 211.753906 69.359375 168.511719 59.660156 132.453125 68.945312 Z M 217.613281 259.050781 C 204.285156 251.375 191.433594 243.96875 177.824219 236.128906 C 185.5 231.714844 192.921875 227.445312 200.390625 223.148438 C 206.066406 219.867188 211.777344 216.59375 217.613281 213.230469 Z M 217.613281 259.050781 " fill-opacity="1" fill-rule="nonzero"/></g><g clip-path="url(#ecda31f61f)"><path fill="#682fd8" d="M 140.027344 57.539062 C 99.859375 67.898438 73.988281 102.265625 73.964844 143.753906 C 73.929688 191.777344 73.949219 239.808594 73.949219 287.832031 L 107.105469 269.015625 C 107.023438 227.238281 107.046875 185.480469 107.082031 143.703125 C 107.082031 129.921875 111.128906 117.507812 120.308594 107.046875 C 134.582031 90.746094 153.105469 85.796875 173.902344 87.960938 C 197.980469 90.433594 218.199219 106.238281 223.371094 127.796875 C 225.578125 136.9375 224.710938 146.777344 225.660156 156.246094 C 226.214844 161.609375 223.984375 164.335938 219.511719 166.871094 C 188.792969 184.324219 158.21875 202.046875 127.621094 219.6875 C 122.027344 222.902344 121.964844 226.414062 127.457031 229.59375 C 135.5625 234.273438 143.675781 238.957031 151.777344 243.640625 C 186.066406 263.421875 220.332031 283.210938 254.640625 302.96875 C 255.695312 303.570312 256.851562 303.976562 258.710938 304.804688 L 258.710938 299.441406 C 258.710938 262.308594 258.789062 225.167969 258.582031 188.035156 C 258.5625 185.332031 259.140625 183.457031 260.457031 181.933594 C 261.265625 180.960938 262.355469 180.160156 263.777344 179.355469 C 280.921875 169.65625 297.9375 159.734375 315.058594 149.976562 L 315.058594 111.5625 C 307.09375 116.144531 299.523438 120.535156 291.953125 124.890625 C 281.203125 131.101562 270.4375 137.273438 259.746094 143.398438 C 259.167969 142.660156 258.835938 142.429688 258.820312 142.164062 C 258.714844 141.050781 258.679688 139.910156 258.636719 138.777344 C 257.929688 121.796875 252.613281 106.40625 242.996094 92.441406 C 219.332031 57.953125 176.085938 48.257812 140.027344 57.539062 Z M 225.191406 247.648438 C 211.863281 239.972656 199.011719 232.5625 185.398438 224.726562 C 193.074219 220.308594 200.5 216.042969 207.96875 211.746094 C 213.640625 208.460938 219.355469 205.1875 225.191406 201.824219 Z M 225.191406 247.648438 " fill-opacity="1" fill-rule="nonzero"/></g></svg>