<svg xmlns="http://www.w3.org/2000/svg" xmlns:xlink="http://www.w3.org/1999/xlink" width="500" zoomAndPan="magnify" viewBox="0 0 375 374.999991" height="500" preserveAspectRatio="xMidYMid meet" version="1.0"><defs><clipPath id="ac2cfce423"><path d="M 24.046875 45 L 333 45 L 333 365.402344 L 24.046875 365.402344 Z M 24.046875 45 " clip-rule="nonzero"/></clipPath><clipPath id="813bd66c1a"><path d="M 33.019531 31 L 342 31 L 342 351.398438 L 33.019531 351.398438 Z M 33.019531 31 " clip-rule="nonzero"/></clipPath><clipPath id="2f07e0f0e6"><path d="M 42 17 L 350.996094 17 L 350.996094 337.394531 L 42 337.394531 Z M 42 17 " clip-rule="nonzero"/></clipPath></defs><g clip-path="url(#ac2cfce423)"><path fill="#682fd8" d="M 108.902344 49.476562 C 57.578125 62.710938 24.523438 106.621094 24.496094 159.628906 C 24.449219 220.984375 24.476562 282.351562 24.476562 343.707031 L 66.835938 319.664062 C 66.730469 266.289062 66.761719 212.941406 66.808594 159.5625 C 66.808594 141.957031 71.976562 126.089844 83.703125 112.726562 C 101.945312 91.902344 125.609375 85.578125 152.179688 88.34375 C 182.941406 91.503906 208.773438 111.695312 215.382812 139.238281 C 218.203125 150.921875 217.09375 163.492188 218.304688 175.585938 C 219.015625 182.441406 216.167969 185.925781 210.449219 189.160156 C 171.203125 211.460938 132.140625 234.105469 93.046875 256.640625 C 85.898438 260.75 85.824219 265.238281 92.839844 269.296875 C 103.195312 275.28125 113.558594 281.261719 123.914062 287.246094 C 167.722656 312.519531 211.5 337.800781 255.335938 363.046875 C 256.679688 363.8125 258.15625 364.332031 260.53125 365.394531 L 260.53125 358.539062 C 260.53125 311.097656 260.636719 263.648438 260.371094 216.207031 C 260.34375 212.75 261.082031 210.355469 262.765625 208.40625 C 263.796875 207.164062 265.191406 206.144531 267.007812 205.113281 C 288.910156 192.722656 310.652344 180.046875 332.527344 167.578125 L 332.527344 118.5 C 322.351562 124.351562 312.679688 129.964844 303.003906 135.527344 C 289.269531 143.460938 275.515625 151.347656 261.859375 159.175781 C 261.121094 158.226562 260.695312 157.933594 260.675781 157.59375 C 260.542969 156.171875 260.496094 154.714844 260.4375 153.269531 C 259.539062 131.574219 252.742188 111.914062 240.457031 94.070312 C 210.222656 50.007812 154.972656 37.617188 108.902344 49.476562 Z M 217.710938 292.367188 C 200.679688 282.558594 184.257812 273.09375 166.871094 263.078125 C 176.675781 257.4375 186.160156 251.984375 195.703125 246.496094 C 202.953125 242.300781 210.25 238.117188 217.710938 233.820312 Z M 217.710938 292.367188 " fill-opacity="1" fill-rule="nonzero"/></g><g clip-path="url(#813bd66c1a)"><path fill="#8c52ff" d="M 117.878906 35.472656 C 66.554688 48.703125 33.5 92.617188 33.472656 145.625 C 33.425781 206.980469 33.453125 268.347656 33.453125 329.703125 L 75.8125 305.660156 C 75.707031 252.28125 75.734375 198.933594 75.785156 145.558594 C 75.785156 127.953125 80.953125 112.085938 92.679688 98.722656 C 110.921875 77.898438 134.585938 71.574219 161.15625 74.335938 C 191.917969 77.5 217.75 97.691406 224.355469 125.234375 C 227.175781 136.914062 226.070312 149.484375 227.28125 161.582031 C 227.992188 168.4375 225.144531 171.917969 219.425781 175.15625 C 180.179688 197.457031 141.117188 220.101562 102.023438 242.636719 C 94.875 246.746094 94.800781 251.234375 101.8125 255.292969 C 112.167969 261.277344 122.535156 267.257812 132.890625 273.238281 C 176.695312 298.511719 220.476562 323.796875 264.3125 349.042969 C 265.65625 349.808594 267.132812 350.328125 269.507812 351.390625 L 269.507812 344.535156 C 269.507812 297.09375 269.613281 249.640625 269.347656 202.199219 C 269.320312 198.746094 270.058594 196.351562 271.742188 194.402344 C 272.773438 193.160156 274.164062 192.136719 275.984375 191.105469 C 297.886719 178.714844 319.628906 166.042969 341.503906 153.574219 L 341.503906 104.496094 C 331.328125 110.34375 321.65625 115.957031 311.980469 121.523438 C 298.246094 129.457031 284.492188 137.339844 270.832031 145.167969 C 270.09375 144.222656 269.667969 143.929688 269.648438 143.589844 C 269.519531 142.167969 269.46875 140.710938 269.414062 139.261719 C 268.515625 117.566406 261.71875 97.90625 249.429688 80.0625 C 219.199219 36 163.945312 23.609375 117.878906 35.472656 Z M 226.683594 278.359375 C 209.65625 268.554688 193.234375 259.089844 175.84375 249.074219 C 185.652344 243.433594 195.136719 237.980469 204.679688 232.492188 C 211.929688 228.296875 219.226562 224.113281 226.683594 219.816406 Z M 226.683594 278.359375 " fill-opacity="1" fill-rule="nonzero"/></g><g clip-path="url(#2f07e0f0e6)"><path fill="#cbb2fd" d="M 126.851562 21.464844 C 75.53125 34.699219 42.476562 78.609375 42.449219 131.617188 C 42.398438 192.976562 42.429688 254.339844 42.429688 315.699219 L 84.789062 291.65625 C 84.683594 238.277344 84.710938 184.929688 84.757812 131.550781 C 84.757812 113.945312 89.925781 98.082031 101.65625 84.714844 C 119.894531 63.890625 143.558594 57.570312 170.128906 60.332031 C 200.894531 63.496094 226.726562 83.683594 233.332031 111.230469 C 236.152344 122.910156 235.046875 135.480469 236.257812 147.578125 C 236.96875 154.429688 234.117188 157.914062 228.402344 161.152344 C 189.15625 183.453125 150.089844 206.09375 110.996094 228.632812 C 103.851562 232.742188 103.777344 237.226562 110.789062 241.289062 C 121.144531 247.269531 131.511719 253.253906 141.867188 259.234375 C 185.671875 284.507812 229.453125 309.792969 273.285156 335.035156 C 274.632812 335.804688 276.109375 336.324219 278.484375 337.382812 L 278.484375 330.53125 C 278.484375 283.089844 278.589844 235.636719 278.324219 188.195312 C 278.292969 184.742188 279.03125 182.34375 280.71875 180.394531 C 281.75 179.15625 283.140625 178.132812 284.957031 177.101562 C 306.863281 164.710938 328.605469 152.035156 350.480469 139.570312 L 350.480469 90.492188 C 340.304688 96.339844 330.628906 101.953125 320.957031 107.519531 C 307.222656 115.453125 293.46875 123.335938 279.808594 131.164062 C 279.070312 130.21875 278.644531 129.925781 278.625 129.582031 C 278.492188 128.164062 278.445312 126.707031 278.390625 125.257812 C 277.488281 103.5625 270.695312 83.902344 258.40625 66.058594 C 228.171875 21.996094 172.921875 9.605469 126.851562 21.464844 Z M 235.660156 264.355469 C 218.632812 254.550781 202.210938 245.085938 184.820312 235.070312 C 194.628906 229.429688 204.113281 223.976562 213.652344 218.484375 C 220.902344 214.292969 228.203125 210.109375 235.660156 205.8125 Z M 235.660156 264.355469 " fill-opacity="1" fill-rule="nonzero"/></g></svg>