<svg xmlns="http://www.w3.org/2000/svg" xmlns:xlink="http://www.w3.org/1999/xlink" width="500" zoomAndPan="magnify" viewBox="0 0 375 374.999991" height="500" preserveAspectRatio="xMidYMid meet" version="1.0"><defs><g/><clipPath id="029090bf82"><path d="M 51 36 L 308.6875 36 L 308.6875 304.410156 L 51 304.410156 Z M 51 36 " clip-rule="nonzero"/></clipPath><clipPath id="9ac7df7ff2"><path d="M 58.199219 24 L 316.199219 24 L 316.199219 292.691406 L 58.199219 292.691406 Z M 58.199219 24 " clip-rule="nonzero"/></clipPath><clipPath id="626e0a7d87"><path d="M 66 12 L 323.710938 12 L 323.710938 280.96875 L 66 280.96875 Z M 66 12 " clip-rule="nonzero"/></clipPath></defs><g fill="#682fd8" fill-opacity="1"><g transform="translate(7.742885, 360.795295)"><g><path d="M 34.640625 0 L 43.15625 0 L 43.15625 -44.53125 L 34.640625 -44.53125 L 34.640625 -14.796875 L 14.015625 -44.53125 L 5.5625 -44.53125 L 5.5625 0 L 14.015625 0 L 14.015625 -29.796875 Z M 34.640625 0 "/></g></g></g><g fill="#682fd8" fill-opacity="1"><g transform="translate(56.462011, 360.795295)"><g><path d="M 24.09375 -45.578125 C 19.820312 -45.492188 16.023438 -44.445312 12.703125 -42.4375 C 9.390625 -40.425781 6.828125 -37.648438 5.015625 -34.109375 C 3.203125 -30.578125 2.296875 -26.5625 2.296875 -22.0625 C 2.296875 -17.738281 3.15625 -13.84375 4.875 -10.375 C 6.601562 -6.90625 9.113281 -4.15625 12.40625 -2.125 C 15.707031 -0.09375 19.601562 0.921875 24.09375 0.921875 C 28.414062 0.828125 32.222656 -0.207031 35.515625 -2.1875 C 38.816406 -4.175781 41.382812 -6.925781 43.21875 -10.4375 C 45.050781 -13.957031 45.96875 -17.988281 45.96875 -22.53125 C 45.96875 -26.851562 45.101562 -30.757812 43.375 -34.25 C 41.65625 -37.738281 39.132812 -40.5 35.8125 -42.53125 C 32.5 -44.5625 28.59375 -45.578125 24.09375 -45.578125 Z M 11.125 -22.140625 C 11.125 -25.367188 11.722656 -28.210938 12.921875 -30.671875 C 14.128906 -33.140625 15.722656 -35.039062 17.703125 -36.375 C 19.691406 -37.707031 21.867188 -38.375 24.234375 -38.375 C 26.804688 -38.375 29.070312 -37.695312 31.03125 -36.34375 C 33 -34.988281 34.503906 -33.109375 35.546875 -30.703125 C 36.597656 -28.304688 37.125 -25.582031 37.125 -22.53125 C 37.125 -18.988281 36.546875 -15.984375 35.390625 -13.515625 C 34.234375 -11.054688 32.660156 -9.222656 30.671875 -8.015625 C 28.691406 -6.816406 26.476562 -6.21875 24.03125 -6.21875 C 21.414062 -6.21875 19.132812 -6.882812 17.1875 -8.21875 C 15.25 -9.550781 13.753906 -11.425781 12.703125 -13.84375 C 11.648438 -16.269531 11.125 -19.035156 11.125 -22.140625 Z M 11.125 -22.140625 "/></g></g></g><g fill="#cbb2fd" fill-opacity="1"><g transform="translate(104.737821, 360.795295)"><g><path d="M 17.9375 0 L 25.140625 0 L 42.5 -44.53125 L 33.984375 -44.53125 L 21.734375 -11.65625 L 9.171875 -45.1875 L 0.65625 -44 Z M 17.9375 0 "/></g></g></g><g fill="#682fd8" fill-opacity="1"><g transform="translate(147.901306, 360.795295)"><g><path d="M 9.171875 0 L 13.09375 -10.484375 L 29.984375 -10.484375 L 33.984375 0.65625 L 42.5 -0.53125 L 25.21875 -44.53125 L 18.015625 -44.53125 L 0.65625 0 Z M 21.40625 -32.875 L 27.375 -17.359375 L 15.578125 -17.359375 Z M 21.40625 -32.875 "/></g></g></g><g fill="#682fd8" fill-opacity="1"><g transform="translate(191.054396, 360.795295)"><g><path d="M 23.84375 0 C 28.644531 0 32.460938 -1.164062 35.296875 -3.5 C 38.128906 -5.832031 39.546875 -9.03125 39.546875 -13.09375 C 39.546875 -18.070312 37.253906 -21.757812 32.671875 -24.15625 C 35.859375 -26.644531 37.453125 -29.289062 37.453125 -32.09375 C 37.453125 -36.363281 36.164062 -39.503906 33.59375 -41.515625 C 31.019531 -43.523438 27.441406 -44.53125 22.859375 -44.53125 L 5.5625 -44.53125 L 5.5625 0 Z M 21.609375 -37.453125 C 23.878906 -37.453125 25.59375 -37.035156 26.75 -36.203125 C 27.90625 -35.378906 28.484375 -33.960938 28.484375 -31.953125 C 28.484375 -30.117188 27.738281 -28.734375 26.25 -27.796875 C 24.769531 -26.859375 22.785156 -26.390625 20.296875 -26.390625 L 14.015625 -26.390625 L 14.015625 -37.453125 Z M 23.765625 -19.515625 C 25.910156 -19.515625 27.601562 -18.945312 28.84375 -17.8125 C 30.09375 -16.675781 30.71875 -15.082031 30.71875 -13.03125 C 30.71875 -11.113281 30.039062 -9.628906 28.6875 -8.578125 C 27.332031 -7.523438 25.5 -7 23.1875 -7 L 14.015625 -7 L 14.015625 -19.515625 Z M 23.765625 -19.515625 "/></g></g></g><g fill="#cbb2fd" fill-opacity="1"><g transform="translate(232.261828, 360.795295)"><g><path d="M 9.171875 0 L 13.09375 -10.484375 L 29.984375 -10.484375 L 33.984375 0.65625 L 42.5 -0.53125 L 25.21875 -44.53125 L 18.015625 -44.53125 L 0.65625 0 Z M 21.40625 -32.875 L 27.375 -17.359375 L 15.578125 -17.359375 Z M 21.40625 -32.875 "/></g></g></g><g fill="#682fd8" fill-opacity="1"><g transform="translate(275.42532, 360.795295)"><g><path d="M 34.640625 0 L 43.15625 0 L 43.15625 -44.53125 L 34.640625 -44.53125 L 34.640625 -14.796875 L 14.015625 -44.53125 L 5.5625 -44.53125 L 5.5625 0 L 14.015625 0 L 14.015625 -29.796875 Z M 34.640625 0 "/></g></g></g><g fill="#682fd8" fill-opacity="1"><g transform="translate(324.144446, 360.795295)"><g><path d="M 14.078125 -13.953125 L 14.078125 0 L 5.5625 0 L 5.5625 -44.53125 L 14.078125 -44.53125 L 14.078125 -25.859375 L 33.390625 -45.515625 L 39.6875 -40.671875 L 24.359375 -24.6875 L 42.4375 0 L 31.890625 0 L 18.46875 -18.53125 Z M 14.078125 -13.953125 "/></g></g></g><g clip-path="url(#029090bf82)"><path fill="#cbb2fd" d="M 121.710938 39.980469 C 78.75 51.054688 51.085938 87.808594 51.0625 132.175781 C 51.023438 183.53125 51.046875 234.898438 51.046875 286.253906 L 86.5 266.128906 C 86.414062 221.453125 86.4375 176.796875 86.476562 132.121094 C 86.476562 117.386719 90.800781 104.105469 100.617188 92.917969 C 115.886719 75.488281 135.691406 70.195312 157.933594 72.511719 C 183.683594 75.15625 205.304688 92.054688 210.832031 115.113281 C 213.195312 124.886719 212.265625 135.410156 213.28125 145.535156 C 213.875 151.269531 211.492188 154.1875 206.707031 156.898438 C 173.859375 175.5625 141.160156 194.515625 108.4375 213.378906 C 102.457031 216.816406 102.394531 220.574219 108.265625 223.972656 C 116.933594 228.980469 125.605469 233.984375 134.273438 238.992188 C 170.941406 260.148438 207.585938 281.308594 244.277344 302.4375 C 245.402344 303.082031 246.636719 303.515625 248.625 304.402344 L 248.625 298.667969 C 248.625 258.957031 248.710938 219.242188 248.492188 179.53125 C 248.46875 176.640625 249.085938 174.636719 250.496094 173.003906 C 251.359375 171.964844 252.523438 171.109375 254.042969 170.246094 C 272.378906 159.875 290.578125 149.265625 308.886719 138.832031 L 308.886719 97.753906 C 300.371094 102.648438 292.273438 107.347656 284.175781 112.003906 C 272.679688 118.644531 261.167969 125.246094 249.734375 131.796875 C 249.117188 131.003906 248.761719 130.757812 248.746094 130.472656 C 248.632812 129.285156 248.59375 128.066406 248.546875 126.851562 C 247.792969 108.695312 242.105469 92.238281 231.820312 77.304688 C 206.515625 40.421875 160.269531 30.050781 121.710938 39.980469 Z M 212.78125 243.28125 C 198.53125 235.070312 184.78125 227.148438 170.230469 218.765625 C 178.4375 214.042969 186.375 209.480469 194.363281 204.886719 C 200.429688 201.375 206.539062 197.875 212.78125 194.277344 Z M 212.78125 243.28125 " fill-opacity="1" fill-rule="nonzero"/></g><g clip-path="url(#9ac7df7ff2)"><path fill="#8c52ff" d="M 129.222656 28.257812 C 86.265625 39.332031 58.597656 76.085938 58.574219 120.453125 C 58.535156 171.8125 58.558594 223.175781 58.558594 274.53125 L 94.011719 254.40625 C 93.925781 209.730469 93.949219 165.078125 93.988281 120.398438 C 93.988281 105.664062 98.316406 92.382812 108.132812 81.195312 C 123.398438 63.765625 143.207031 58.472656 165.445312 60.789062 C 191.195312 63.433594 212.816406 80.332031 218.347656 103.390625 C 220.707031 113.164062 219.78125 123.6875 220.792969 133.8125 C 221.386719 139.546875 219.003906 142.464844 214.21875 145.175781 C 181.371094 163.839844 148.671875 182.792969 115.953125 201.65625 C 109.96875 205.09375 109.90625 208.851562 115.777344 212.25 C 124.445312 217.257812 133.121094 222.261719 141.789062 227.269531 C 178.453125 248.425781 215.097656 269.585938 251.789062 290.714844 C 252.914062 291.359375 254.148438 291.792969 256.136719 292.679688 L 256.136719 286.945312 C 256.136719 247.234375 256.226562 207.519531 256.003906 167.808594 C 255.980469 164.917969 256.597656 162.914062 258.007812 161.28125 C 258.871094 160.242188 260.035156 159.386719 261.558594 158.523438 C 279.890625 148.152344 298.089844 137.542969 316.398438 127.109375 L 316.398438 86.03125 C 307.882812 90.925781 299.785156 95.625 291.6875 100.28125 C 280.191406 106.921875 268.679688 113.523438 257.246094 120.074219 C 256.628906 119.28125 256.273438 119.035156 256.257812 118.75 C 256.144531 117.5625 256.105469 116.34375 256.058594 115.128906 C 255.304688 96.972656 249.617188 80.515625 239.332031 65.582031 C 214.027344 28.699219 167.78125 18.328125 129.222656 28.257812 Z M 220.296875 231.558594 C 206.042969 223.347656 192.296875 215.425781 177.742188 207.042969 C 185.949219 202.320312 193.886719 197.757812 201.875 193.164062 C 207.945312 189.652344 214.050781 186.152344 220.296875 182.554688 Z M 220.296875 231.558594 " fill-opacity="1" fill-rule="nonzero"/></g><g clip-path="url(#626e0a7d87)"><path fill="#682fd8" d="M 136.734375 16.535156 C 93.777344 27.609375 66.109375 64.363281 66.085938 108.730469 C 66.046875 160.089844 66.070312 211.453125 66.070312 262.808594 L 101.527344 242.683594 C 101.4375 198.007812 101.460938 153.355469 101.5 108.675781 C 101.5 93.941406 105.828125 80.660156 115.644531 69.472656 C 130.910156 52.042969 150.71875 46.75 172.957031 49.066406 C 198.707031 51.710938 220.328125 68.609375 225.859375 91.667969 C 228.21875 101.441406 227.292969 111.964844 228.308594 122.089844 C 228.902344 127.828125 226.515625 130.742188 221.730469 133.453125 C 188.882812 152.117188 156.183594 171.070312 123.464844 189.933594 C 117.480469 193.371094 117.417969 197.128906 123.289062 200.527344 C 131.957031 205.535156 140.632812 210.539062 149.300781 215.546875 C 185.96875 236.703125 222.609375 257.863281 259.300781 278.996094 C 260.425781 279.636719 261.664062 280.070312 263.652344 280.960938 L 263.652344 275.222656 C 263.652344 235.511719 263.738281 195.796875 263.515625 156.085938 C 263.492188 153.195312 264.109375 151.191406 265.519531 149.558594 C 266.382812 148.519531 267.550781 147.664062 269.070312 146.800781 C 287.402344 136.429688 305.601562 125.820312 323.914062 115.386719 L 323.914062 74.308594 C 315.394531 79.203125 307.296875 83.902344 299.199219 88.5625 C 287.703125 95.199219 276.191406 101.800781 264.761719 108.351562 C 264.140625 107.558594 263.785156 107.3125 263.769531 107.027344 C 263.660156 105.839844 263.621094 104.621094 263.570312 103.40625 C 262.820312 85.25 257.128906 68.792969 246.847656 53.859375 C 221.542969 16.976562 175.296875 6.605469 136.734375 16.535156 Z M 227.808594 219.835938 C 213.554688 211.625 199.808594 203.703125 185.253906 195.320312 C 193.460938 190.597656 201.402344 186.035156 209.386719 181.441406 C 215.457031 177.929688 221.566406 174.429688 227.808594 170.832031 Z M 227.808594 219.835938 " fill-opacity="1" fill-rule="nonzero"/></g></svg>